<svg xmlns="http://www.w3.org/2000/svg" viewBox="0 0 960 220" role="img" aria-label="Google Maps architecture">
  <rect width="960" height="220" fill="#0f172a"/>
  <defs>
    <pattern id="g" width="28" height="28" patternUnits="userSpaceOnUse"><path d="M28 0H0V28" fill="none" stroke="rgba(230,237,247,0.06)" stroke-width="1"/></pattern>
    <marker id="ah" viewBox="0 0 10 10" refX="9" refY="5" markerWidth="7" markerHeight="7" orient="auto-start-reverse"><path d="M0 0L10 5L0 10z" fill="#8fa1bd"/></marker>
  </defs>
  <rect width="960" height="220" fill="url(#g)"/>
  <text x="16" y="28" fill="#8fa1bd" font-family="ui-monospace,Menlo,Consolas,monospace" font-size="12">Google Maps  tiles CDN, routing graph, traffic, ETA</text>
  <rect x="20" y="88" width="80" height="44" rx="8" fill="#111c30" stroke="#e6edf7" stroke-width="1.4"/><text x="60" y="115" text-anchor="middle" fill="#e6edf7" font-family="ui-monospace,Menlo,Consolas,monospace" font-size="12">Client</text>
  <rect x="130" y="88" width="100" height="44" rx="8" fill="#111c30" stroke="#e6edf7" stroke-width="1.4"/><text x="180" y="115" text-anchor="middle" fill="#e6edf7" font-family="ui-monospace,Menlo,Consolas,monospace" font-size="11">Tile CDN</text>
  <rect x="260" y="88" width="120" height="44" rx="8" fill="#10332f" stroke="#38d0b8" stroke-width="1.6"/><text x="320" y="115" text-anchor="middle" fill="#e6edf7" font-family="ui-monospace,Menlo,Consolas,monospace" font-size="11">Maps API</text>
  <rect x="420" y="30" width="140" height="44" rx="8" fill="#111c30" stroke="#e6edf7" stroke-width="1.4"/><text x="490" y="57" text-anchor="middle" fill="#e6edf7" font-family="ui-monospace,Menlo,Consolas,monospace" font-size="11">Tile store</text>
  <rect x="420" y="88" width="140" height="44" rx="8" fill="#10332f" stroke="#38d0b8" stroke-width="1.6"/><text x="490" y="115" text-anchor="middle" fill="#e6edf7" font-family="ui-monospace,Menlo,Consolas,monospace" font-size="11">Routing graph</text>
  <rect x="420" y="146" width="140" height="44" rx="8" fill="#111c30" stroke="#e6edf7" stroke-width="1.4"/><text x="490" y="173" text-anchor="middle" fill="#e6edf7" font-family="ui-monospace,Menlo,Consolas,monospace" font-size="11">Traffic stream</text>
  <rect x="600" y="88" width="140" height="44" rx="8" fill="#111c30" stroke="#e6edf7" stroke-width="1.4"/><text x="670" y="115" text-anchor="middle" fill="#e6edf7" font-family="ui-monospace,Menlo,Consolas,monospace" font-size="11">ETA / traffic</text>
  <rect x="780" y="88" width="150" height="44" rx="8" fill="#111c30" stroke="#e6edf7" stroke-width="1.4"/><text x="855" y="115" text-anchor="middle" fill="#e6edf7" font-family="ui-monospace,Menlo,Consolas,monospace" font-size="11">Places / geocode</text>
  <path d="M100 110H128" stroke="#8fa1bd" stroke-width="1.4" fill="none" marker-end="url(#ah)"/>
  <path d="M230 110H258" stroke="#8fa1bd" stroke-width="1.4" fill="none" marker-end="url(#ah)"/>
  <path d="M380 100L418 56" stroke="#8fa1bd" stroke-width="1.4" fill="none" marker-end="url(#ah)"/>
  <path d="M380 110H418" stroke="#8fa1bd" stroke-width="1.4" fill="none" marker-end="url(#ah)"/>
  <path d="M380 120L418 168" stroke="#8fa1bd" stroke-width="1.4" fill="none" marker-end="url(#ah)"/>
  <path d="M560 110H598" stroke="#8fa1bd" stroke-width="1.4" fill="none" marker-end="url(#ah)"/>
  <path d="M740 110H778" stroke="#8fa1bd" stroke-width="1.4" fill="none" marker-end="url(#ah)"/>
</svg>
